<svg xmlns="http://www.w3.org/2000/svg" viewBox="0 0 138.76 112.54"><defs><style>.cls-1{fill:#149fc4;}</style></defs><title>logo</title><g id="图层_2" data-name="图层 2"><g id="图层_1-2" data-name="图层 1"><path class="cls-1" d="M33.12,21s-57.21,28.3-21.25,91.51H42.56V98.86a5.13,5.13,0,0,1,3-4.71l.3-.13a5.16,5.16,0,0,1,6.94,4.9v13.62h31V94.35a9.91,9.91,0,0,1,.92-4.18c1-2,3-5.11,5.27-5.58L87,80.4a12.48,12.48,0,0,0,2.24-1.25c11.18-7.63,6.91-25.12-6.44-27.3a50.53,50.53,0,0,0-9.21-.42S38.78,54.93,33.12,21Z"/><path class="cls-1" d="M89.35,2.11l-.14,0a19.84,19.84,0,0,0-4.41-.46c-5.69,0-24.86,0-32,0a7.86,7.86,0,0,0-2.54.61l-.45.16A16.55,16.55,0,0,0,39.68,23.11C42.16,31.46,48.8,44,66.34,44.81c.67,0,1.34-.06,2-.09,4-.16,20.38-3.35,28.42,6.67,0,0,6.86,7.53,5,22a34.43,34.43,0,0,0,24,11.06s-.94,3.41-12.87,3.76c0,0,2,17.51-2,22.49h14.91s10,.92,12.85-40.53C140.79,38.61,120.14,9.55,89.35,2.11Zm26,48.81a4.65,4.65,0,1,1,3.85-3.86A4.65,4.65,0,0,1,115.36,50.92Z"/><path class="cls-1" d="M52.19,1.66S75-3.59,97.26,4.57"/></g></g></svg>